<?xml version="1.0" standalone="no"?>
<!DOCTYPE svg PUBLIC "-//W3C//DTD SVG 20010904//EN"
 "http://www.w3.org/TR/2001/REC-SVG-20010904/DTD/svg10.dtd">
<svg version="1.0" xmlns="http://www.w3.org/2000/svg"
 width="1080.000000pt" height="1044.000000pt" viewBox="0 0 1080.000000 1044.000000"
 preserveAspectRatio="xMidYMid meet">

<g transform="translate(0.000000,1044.000000) scale(0.100000,-0.100000)"
fill="#000000" stroke="none">
<path d="M5335 9017 c-26 -20 -148 -100 -203 -132 -9 -6 -102 -67 -207 -136
-210 -140 -272 -174 -390 -214 -164 -55 -347 -57 -580 -4 -130 29 -346 33
-415 7 -197 -72 -290 -179 -389 -449 -66 -179 -102 -258 -150 -338 -52 -85
-146 -189 -224 -249 -64 -50 -200 -122 -277 -147 -30 -9 -70 -24 -88 -31 -18
-8 -37 -14 -43 -14 -25 0 -192 -89 -256 -136 -110 -82 -165 -159 -207 -288
-31 -97 -19 -312 27 -471 19 -66 15 -337 -6 -417 -38 -142 -106 -276 -211
-415 -45 -59 -107 -146 -137 -193 -30 -47 -68 -105 -85 -130 -16 -25 -31 -49
-34 -55 -3 -5 -22 -36 -43 -67 -36 -55 -37 -60 -37 -145 0 -83 9 -116 39 -143
4 -3 33 -39 66 -80 33 -41 62 -77 65 -80 21 -19 184 -226 218 -276 39 -58 111
-197 125 -240 43 -136 49 -167 54 -299 5 -141 0 -201 -34 -345 -21 -91 -23
-265 -5 -335 63 -233 224 -386 492 -464 400 -118 595 -311 714 -706 64 -210
128 -314 251 -405 146 -108 328 -143 515 -100 249 58 283 63 380 57 252 -15
447 -106 797 -372 331 -252 513 -241 837 51 177 160 288 234 421 282 128 46
333 55 475 21 47 -11 112 -27 145 -34 107 -25 261 -16 375 21 78 27 159 74
243 144 50 41 147 202 147 243 0 8 19 61 41 118 140 352 374 564 764 694 224
74 328 154 404 309 62 130 75 274 41 456 -29 149 -42 309 -34 420 15 227 92
388 303 631 35 41 71 84 81 96 31 36 76 124 105 203 24 65 28 91 29 190 1 199
-47 294 -249 494 -134 132 -200 250 -249 442 -26 99 -21 321 9 498 40 235 30
388 -37 523 -75 153 -201 244 -457 330 -263 88 -444 210 -573 388 -60 83 -114
197 -164 342 -25 76 -58 161 -71 188 -96 197 -287 316 -502 315 -56 -1 -122
-11 -281 -46 -118 -25 -366 -26 -468 -1 -217 52 -371 145 -562 338 -30 31 -96
84 -147 117 l-92 62 -113 0 c-103 0 -116 -2 -143 -23z m-665 -1257 c0 -5 -4
-10 -10 -10 -5 0 -10 5 -10 10 0 6 5 10 10 10 6 0 10 -4 10 -10z m2077 -147
c-3 -3 -11 -2 -17 2 -9 6 -9 10 1 16 14 8 27 -7 16 -18z m-2881 -4 c8 -14 -11
-33 -25 -25 -11 7 -4 36 9 36 5 0 12 -5 16 -11z m2397 -72 c-3 -5 -10 -4 -15
1 -6 6 -7 16 -3 22 6 9 9 9 16 -1 4 -7 5 -17 2 -22z m-2238 -60 c0 -26 -20
-25 -23 2 -3 16 1 22 10 19 7 -3 13 -12 13 -21z m1270 -31 c26 -19 13 -44 -29
-51 -45 -9 -76 2 -76 26 0 34 70 51 105 25z m-315 -71 c0 -8 -7 -15 -15 -15
-8 0 -15 7 -15 15 0 8 7 15 15 15 8 0 15 -7 15 -15z m80 -256 c0 -12 -7 -19
-20 -19 -22 0 -26 20 -8 38 15 15 28 6 28 -19z m830 -4 c0 -8 -7 -15 -15 -15
-16 0 -20 12 -8 23 11 12 23 8 23 -8z m555 -115 c17 -19 17 -22 3 -37 -11 -10
-25 -13 -42 -9 -21 5 -26 12 -26 36 0 25 4 30 23 30 13 0 32 -9 42 -20z m115
-50 c0 -5 -5 -10 -11 -10 -5 0 -7 5 -4 10 3 6 8 10 11 10 2 0 4 -4 4 -10z
m-1500 -15 c10 -12 10 -18 0 -30 -17 -20 -27 -19 -35 5 -11 36 12 53 35 25z
m804 -17 c20 -28 3 -67 -20 -47 -27 22 -38 51 -23 60 21 13 26 11 43 -13z
m370 -58 c-6 -6 -15 -6 -24 0 -13 9 -13 11 0 20 18 11 39 -5 24 -20z m-1437
-22 c-3 -8 -6 -5 -6 6 -1 11 2 17 5 13 3 -3 4 -12 1 -19z m1187 -3 c18 -27 21
-62 6 -85 -13 -21 9 -31 34 -17 14 8 72 12 161 12 150 0 149 0 290 -66 44 -21
92 -41 108 -44 15 -4 30 -11 33 -16 9 -15 46 -10 59 8 14 19 42 12 52 -13 3
-8 -1 -23 -10 -31 -14 -14 -7 -22 76 -86 251 -190 370 -318 474 -507 59 -106
84 -194 84 -295 0 -53 -6 -114 -14 -141 -8 -27 -20 -74 -27 -104 -36 -159
-257 -507 -343 -539 -15 -5 -31 -19 -35 -29 -7 -20 -58 -66 -147 -132 -27 -21
-60 -47 -72 -59 -12 -12 -26 -21 -31 -21 -4 0 -39 -21 -77 -46 -77 -51 -154
-95 -230 -133 -42 -20 -63 -24 -126 -23 -51 2 -89 -3 -114 -14 -26 -11 -52
-14 -81 -9 -42 6 -44 5 -58 -29 -17 -41 -41 -131 -51 -196 -8 -46 -52 -187
-64 -205 -20 -27 -42 -111 -56 -213 -9 -63 -26 -134 -37 -158 -23 -52 -74
-114 -94 -114 -16 0 -19 16 -4 25 15 9 12 41 -6 56 -21 17 -49 0 -49 -32 0
-19 -6 -25 -28 -27 -32 -4 -33 -3 -105 102 -44 65 -47 74 -46 130 0 50 8 76
41 146 38 79 57 131 85 235 6 22 16 60 23 85 7 25 18 64 24 87 6 23 21 49 32
56 16 12 19 21 14 53 -4 24 -1 56 9 84 8 25 31 108 51 184 37 147 46 166 76
166 23 0 25 36 4 65 -17 21 -14 44 17 165 11 41 24 93 29 115 5 22 13 56 18
75 6 19 17 67 27 105 9 39 22 90 30 115 7 25 34 128 60 230 25 102 52 212 61
245 31 126 43 193 50 276 l6 86 -36 22 c-51 31 -78 73 -108 166 -21 66 -30 80
-50 85 -13 3 -26 14 -28 25 -6 35 49 205 68 205 5 0 16 -11 25 -25z m-1499
-25 c0 -22 -39 -19 -43 3 -3 15 1 18 20 15 12 -2 23 -10 23 -18z m-641 -29
c14 -26 14 -30 0 -35 -22 -8 -22 -8 -34 15 -9 15 -8 24 1 35 15 19 16 18 33
-15z m1151 10 c8 -14 -13 -24 -33 -16 -14 5 -14 7 -2 15 19 12 27 12 35 1z
m1929 -36 c20 -31 20 -44 -1 -67 -15 -17 -17 -17 -35 -2 -21 19 -22 32 -8 68
12 32 23 33 44 1z m-1604 -5 c9 -17 7 -22 -15 -32 -37 -17 -56 3 -30 32 23 25
32 25 45 0z m-702 -35 c5 -62 -39 -75 -52 -15 -7 40 0 52 27 48 16 -2 23 -11
25 -33z m-1028 -6 c0 -5 -10 -9 -21 -9 -18 0 -19 2 -9 15 12 15 30 12 30 -6z
m430 -19 c0 -11 -4 -20 -10 -20 -5 0 -10 9 -10 20 0 11 5 20 10 20 6 0 10 -9
10 -20z m1055 -14 c30 -8 61 -18 67 -22 7 -4 23 -9 36 -10 37 -4 79 -51 103
-113 17 -47 21 -81 22 -206 1 -82 0 -192 -2 -242 -4 -85 -6 -93 -24 -93 -27 0
-84 44 -102 80 -8 16 -15 42 -15 59 0 16 -4 33 -10 36 -5 3 -10 -2 -10 -12 0
-11 -5 -24 -11 -30 -5 -5 -16 -37 -24 -69 -14 -62 -8 -121 21 -191 l15 -34 72
3 c55 2 72 7 74 18 1 8 5 41 8 73 6 51 9 57 29 57 31 0 44 17 48 64 2 22 9 41
16 44 18 6 17 -170 -2 -207 -15 -28 -53 -51 -86 -51 -17 0 -20 -7 -20 -50 0
-46 2 -50 24 -50 14 0 39 -12 56 -27 l32 -26 -24 -18 c-26 -21 -59 -24 -75 -8
-21 21 -36 -32 -45 -161 -8 -110 -32 -314 -59 -510 -5 -36 -12 -95 -15 -131
l-7 -66 54 -7 c113 -13 157 -10 179 9 20 18 21 18 44 -4 13 -13 37 -23 55 -23
18 -1 28 -4 23 -7 -5 -3 -12 -15 -16 -27 -7 -23 15 -49 36 -42 12 4 48 -26 48
-40 0 -15 -60 -39 -168 -68 -68 -18 -72 -18 -72 5 0 24 -13 33 -34 25 -11 -4
-14 -13 -10 -28 7 -30 -10 -42 -80 -55 -33 -6 -60 -12 -60 -13 -33 -68 -48
-134 -41 -169 4 -16 2 -35 -3 -42 -5 -7 -12 -100 -15 -207 -3 -107 -11 -213
-16 -235 -6 -22 -11 -100 -11 -174 0 -126 -17 -238 -40 -266 -5 -5 -11 -28
-15 -50 -11 -65 -13 -70 -50 -89 -34 -18 -35 -18 -90 4 -59 24 -92 62 -111
125 -4 17 -8 112 -9 212 l0 182 -33 34 c-37 38 -35 63 7 74 14 3 29 11 33 17
4 6 8 126 8 267 0 225 -2 258 -16 263 -24 9 -103 7 -170 -4 -56 -10 -74 -14
-184 -45 -25 -7 -72 -20 -105 -30 -33 -9 -70 -22 -83 -28 -23 -11 -58 -76
-101 -185 -29 -74 -95 -196 -129 -239 -31 -39 -57 -92 -88 -178 -23 -64 -76
-118 -114 -117 -39 1 -86 27 -107 59 -41 63 2 228 142 546 9 21 14 44 12 52
-3 7 -44 36 -92 65 -100 60 -124 89 -105 124 15 30 6 46 -25 46 -27 0 -55 34
-55 66 0 12 9 33 20 47 18 23 23 24 49 14 25 -9 45 -6 128 21 54 17 137 36
185 42 96 13 104 18 138 93 17 36 20 51 11 60 -20 20 -13 47 12 47 27 0 28 2
132 234 14 33 48 112 75 176 90 215 318 690 421 878 43 78 120 182 135 182 6
0 15 12 18 26 4 15 18 41 30 58 40 52 56 93 56 138 0 42 21 88 40 88 5 0 34
-7 65 -14z m499 -75 c11 -20 12 -31 4 -39 -6 -6 -14 -68 -19 -139 -4 -70 -11
-137 -15 -148 -10 -27 -55 -75 -71 -75 -21 0 -73 91 -73 129 0 42 26 151 50
206 21 48 66 95 91 95 10 0 25 -13 33 -29z m-1792 -6 c0 -5 -5 -11 -11 -13 -6
-2 -11 4 -11 13 0 9 5 15 11 13 6 -2 11 -8 11 -13z m751 -40 c-7 -21 -13 -19
-13 6 0 11 4 18 10 14 5 -3 7 -12 3 -20z m1192 16 c3 -5 1 -12 -5 -16 -5 -3
-10 1 -10 9 0 18 6 21 15 7z m-1385 -72 c0 -14 -5 -19 -17 -17 -26 5 -29 38
-4 38 15 0 21 -6 21 -21z m1590 -59 c0 -5 -5 -12 -11 -16 -14 -8 -33 11 -25
25 7 11 36 4 36 -9z m-1813 -36 c6 -16 -15 -37 -29 -28 -4 3 -8 14 -8 25 0 23
28 26 37 3z m2928 6 c3 -5 1 -10 -4 -10 -6 0 -11 5 -11 10 0 6 2 10 4 10 3 0
8 -4 11 -10z m172 -56 c3 -9 -4 -25 -18 -40 -24 -23 -24 -24 -37 -4 -10 17 -9
23 8 40 24 24 39 25 47 4z m-3327 -55 c0 -5 -9 -9 -20 -9 -22 0 -27 16 -7 23
15 5 27 -1 27 -14z m714 -155 c23 -22 20 -44 -5 -44 -28 0 -51 30 -37 47 14
17 23 16 42 -3z m1016 -28 c0 -29 -33 -127 -57 -171 -13 -23 -21 -9 -29 49 -6
37 -2 54 21 98 40 77 65 86 65 24z m-2617 -162 c8 -9 -11 -44 -23 -44 -6 0
-10 11 -10 25 0 23 18 34 33 19z m562 -74 c0 -27 -22 -39 -31 -16 -8 22 3 49
19 43 6 -2 12 -14 12 -27z m442 -44 c-2 -5 -13 -16 -24 -23 -19 -13 -23 -12
-32 6 -9 17 -7 25 10 42 21 21 22 21 36 3 7 -10 12 -22 10 -28z m-655 -73 c22
-20 23 -35 2 -74 -15 -29 -16 -30 -34 -14 -25 22 -35 72 -20 90 16 19 29 19
52 -2z m378 -30 c0 -7 -9 -13 -20 -13 -22 0 -29 35 -7 43 13 4 27 -11 27 -30z
m560 -43 c0 -24 -26 -38 -42 -22 -8 8 -8 15 2 27 18 21 40 19 40 -5z m-750
-26 c15 -38 12 -64 -14 -144 -32 -99 -46 -105 -86 -34 -36 62 -35 67 19 144
46 65 66 74 81 34z m434 0 c24 -9 20 -33 -4 -27 -11 3 -20 12 -20 19 0 16 2
16 24 8z m1507 -93 c-19 -34 -59 -23 -45 13 6 17 35 26 47 15 5 -4 4 -16 -2
-28z m-2172 -22 c-14 -27 -53 -22 -57 8 -4 24 22 35 51 21 14 -7 15 -13 6 -29z
m2337 -30 c3 -6 2 -15 -3 -20 -13 -13 -43 -1 -43 17 0 16 36 19 46 3z m-1402
-75 c18 -7 12 -24 -10 -24 -8 0 -14 7 -14 15 0 17 2 18 24 9z m1531 -28 c0
-39 -31 -59 -50 -32 -12 16 -12 22 2 43 21 32 48 26 48 -11z m-1928 18 c-3 -3
-12 -4 -19 -1 -8 3 -5 6 6 6 11 1 17 -2 13 -5z m173 -90 c0 -8 -4 -12 -10 -9
-5 3 -10 10 -10 16 0 5 5 9 10 9 6 0 10 -7 10 -16z m-716 -10 c25 -10 19 -43
-9 -50 -36 -9 -55 2 -55 31 0 20 5 25 24 25 13 0 31 -3 40 -6z m505 -57 c8
-10 7 -19 -4 -33 -15 -19 -15 -19 -30 0 -11 14 -12 23 -4 33 6 7 15 13 19 13
4 0 13 -6 19 -13z m1923 -54 c23 -20 23 -36 0 -56 -16 -15 -20 -15 -40 -1 -24
17 -29 43 -10 62 16 16 28 15 50 -5z m-378 -20 c4 -11 -4 -27 -24 -48 -20 -20
-30 -41 -30 -61 0 -17 -6 -39 -14 -49 -11 -16 -16 -17 -29 -7 -14 12 -13 18 5
60 25 55 67 122 78 122 4 0 11 -8 14 -17z m-1764 -27 c0 -27 -38 -44 -47 -20
-8 22 5 44 27 44 14 0 20 -7 20 -24z m1945 -41 c19 -33 34 -69 35 -81 0 -12
-20 -52 -45 -90 -25 -37 -45 -72 -45 -77 0 -23 -47 2 -73 39 -28 40 -29 42
-14 85 9 24 25 67 37 94 12 28 26 60 31 73 14 36 37 23 74 -43z m1905 0 c16
-19 6 -45 -18 -45 -25 0 -46 25 -38 45 7 19 40 19 56 0z m-4070 -55 c0 -5 -9
-10 -20 -10 -11 0 -20 5 -20 10 0 6 9 10 20 10 11 0 20 -4 20 -10z m198 -88
c4 -28 -24 -40 -45 -19 -21 21 -9 49 19 45 15 -2 24 -11 26 -26z m-198 -102
c0 -5 -9 -10 -20 -10 -11 0 -20 5 -20 10 0 6 9 10 20 10 11 0 20 -4 20 -10z
m4140 0 c0 -5 -4 -10 -10 -10 -5 0 -10 5 -10 10 0 6 5 10 10 10 6 0 10 -4 10
-10z m-4820 -80 c0 -5 -9 -10 -20 -10 -11 0 -20 5 -20 10 0 6 9 10 20 10 11 0
20 -4 20 -10z m1000 -100 c0 -16 -7 -20 -35 -20 -30 0 -35 3 -35 24 0 15 7 26
18 29 26 5 52 -11 52 -33z m3793 -56 c3 -3 3 -12 0 -19 -6 -17 -33 -8 -33 11
0 14 21 19 33 8z m-4035 -56 c-7 -19 -38 -22 -38 -4 0 10 9 16 21 16 12 0 19
-5 17 -12z m3792 -43 c0 -8 -4 -15 -10 -15 -5 0 -10 7 -10 15 0 8 5 15 10 15
6 0 10 -7 10 -15z m-4022 -27 c8 -8 8 -17 0 -31 -10 -20 -11 -20 -24 -3 -12
17 -9 46 5 46 4 0 12 -5 19 -12z m3803 -41 c-1 -12 -15 -9 -19 4 -3 6 1 10 8
8 6 -3 11 -8 11 -12z m-1701 -67 c0 -11 -4 -20 -10 -20 -5 0 -10 9 -10 20 0
11 5 20 10 20 6 0 10 -9 10 -20z m-1895 -10 c3 -5 -1 -10 -10 -10 -9 0 -13 5
-10 10 3 6 8 10 10 10 2 0 7 -4 10 -10z m1194 -14 l23 -25 -37 -7 c-41 -7 -72
13 -62 40 9 24 50 19 76 -8z m1475 5 c28 -31 -3 -74 -46 -63 -23 6 -32 36 -18
62 14 25 42 26 64 1z m766 -41 c0 -24 -32 -27 -50 -5 -10 12 -10 18 0 30 16
19 50 2 50 -25z m-625 -70 c-3 -5 -13 -10 -21 -10 -8 0 -14 5 -14 10 0 6 9 10
21 10 11 0 17 -4 14 -10z m-1720 -60 c8 -25 -11 -51 -30 -44 -20 8 -27 34 -14
50 17 20 37 17 44 -6z m-1197 -17 c2 -8 -5 -13 -17 -13 -21 0 -35 13 -24 24
10 10 36 3 41 -11z m402 -9 c0 -17 -22 -14 -28 4 -2 7 3 12 12 12 9 0 16 -7
16 -16z m1688 -38 c4 -20 -15 -46 -34 -46 -22 0 -29 42 -8 57 22 16 38 12 42
-11z m789 -22 c9 -23 -14 -65 -32 -58 -15 6 -21 55 -8 67 12 12 33 7 40 -9z
m-2712 -44 c-5 -8 -11 -8 -17 -2 -6 6 -7 16 -3 22 5 8 11 8 17 2 6 -6 7 -16 3
-22z m-180 -39 c3 -5 1 -13 -5 -16 -15 -9 -43 3 -35 15 8 13 32 13 40 1z
m1175 -36 c0 -20 -36 -46 -54 -39 -21 8 -21 42 1 66 15 17 17 17 35 2 10 -10
18 -22 18 -29z m1513 -10 c-3 -8 -14 -15 -24 -15 -23 0 -24 4 -3 24 18 19 36
12 27 -9z m-1770 -61 c9 -10 -12 -46 -24 -39 -14 9 -11 45 4 45 8 0 17 -3 20
-6z m1184 -20 c3 -8 1 -20 -4 -25 -14 -14 -43 0 -43 22 0 24 38 26 47 3z m753
-19 c0 -8 -9 -19 -19 -25 -25 -13 -45 15 -30 42 8 15 14 16 29 8 11 -6 20 -17
20 -25z m-1661 -86 c73 -67 76 -73 46 -93 -25 -16 -26 -16 -81 36 -60 57 -78
83 -69 98 14 22 50 7 104 -41z m694 27 c21 -16 22 -32 1 -40 -16 -6 -54 9 -54
22 0 9 21 32 30 32 3 0 13 -7 23 -14z m735 -15 c10 -6 10 -11 -3 -21 -14 -12
-18 -11 -25 0 -15 24 2 38 28 21z m205 -78 c4 -3 2 -12 -4 -19 -13 -16 -54 0
-44 17 7 10 38 12 48 2z m537 -16 c0 -21 -27 -72 -49 -91 -18 -17 -19 -17 -25
2 -9 28 31 102 55 102 10 0 19 -6 19 -13z m-1946 -78 c-3 -5 -10 -7 -15 -3 -5
3 -7 10 -3 15 3 5 10 7 15 3 5 -3 7 -10 3 -15z m-636 -71 c17 -17 15 -45 -5
-52 -26 -10 -48 17 -34 43 13 24 22 26 39 9z m1206 -32 c-1 -21 -9 -45 -18
-54 -15 -15 -18 -15 -37 5 -20 19 -20 22 -5 51 28 54 62 53 60 -2z m1507 -21
c0 -5 -9 -11 -21 -13 -20 -3 -27 8 -13 22 10 9 34 3 34 -9z m-401 -20 c0 -18
-5 -25 -20 -25 -35 0 -24 45 13 49 4 1 7 -10 7 -24z m-2525 -11 c19 -19 15
-38 -9 -42 -25 -5 -39 12 -31 37 8 25 18 26 40 5z m2335 -3 c0 -10 -7 -22 -16
-25 -23 -9 -24 -8 -24 19 0 18 5 25 20 25 13 0 20 -7 20 -19z m-1946 -32 c-3
-5 -10 -7 -15 -3 -5 3 -7 10 -3 15 3 5 10 7 15 3 5 -3 7 -10 3 -15z m-190 -55
c7 -18 -18 -64 -34 -64 -6 0 -15 11 -22 25 -8 19 -8 28 2 40 16 20 46 19 54
-1z m1195 -37 c15 -18 -9 -50 -34 -46 -27 6 -44 37 -25 49 21 14 46 12 59 -3z
m759 -51 c-5 -32 -40 -37 -71 -10 -30 26 -27 51 7 64 26 10 68 -25 64 -54z
m-1413 10 c17 -12 18 -17 7 -41 l-13 -28 -24 23 c-19 18 -22 27 -14 41 12 23
19 23 44 5z m1785 4 c0 -5 -2 -10 -4 -10 -3 0 -8 5 -11 10 -3 6 -1 10 4 10 6
0 11 -4 11 -10z m358 -12 c-2 -13 -7 -23 -13 -23 -5 0 -11 10 -13 23 -2 15 2
22 13 22 11 0 15 -7 13 -22z m-1328 -68 c0 -5 -4 -10 -10 -10 -5 0 -10 5 -10
10 0 6 5 10 10 10 6 0 10 -4 10 -10z m-1042 -34 c8 -18 7 -28 -4 -44 -27 -39
-63 -2 -42 43 14 31 32 32 46 1z m466 -32 c2 -6 -4 -20 -15 -30 -19 -17 -21
-17 -47 3 -33 24 -42 69 -15 75 19 4 69 -27 77 -48z m-666 -73 c4 -28 -9 -44
-31 -35 -19 7 -31 39 -22 54 12 20 50 7 53 -19z m1374 -33 c-15 -15 -26 -4
-18 18 5 13 9 15 18 6 9 -9 9 -15 0 -24z m-972 9 c0 -19 -10 -27 -26 -20 -21
8 -17 33 6 33 11 0 20 -6 20 -13z m1897 -23 c7 -19 -20 -49 -36 -40 -15 10
-14 43 2 49 21 9 27 7 34 -9z m-737 -14 c12 -7 12 -13 4 -27 -23 -38 -66 -19
-50 22 6 17 24 19 46 5z m-1810 -44 c-14 -18 -46 -21 -55 -6 -3 5 4 19 16 31
19 19 23 20 37 6 13 -13 13 -19 2 -31z m1039 -12 c13 -27 23 -58 23 -70 0 -19
-85 -160 -107 -176 -18 -13 -22 -9 -44 41 -25 58 -26 80 -7 125 19 46 88 137
101 133 5 -2 21 -26 34 -53z m-1629 10 c0 -14 -21 -19 -33 -7 -9 9 13 34 24
27 5 -3 9 -12 9 -20z m1023 -10 c-4 -12 -8 -13 -14 -3 -9 15 -2 32 11 24 5 -3
6 -13 3 -21z m974 -80 c19 -30 9 -57 -25 -62 -24 -4 -36 24 -26 62 8 33 29 33
51 0z m640 5 c33 -12 35 -25 7 -44 -22 -14 -32 -15 -75 -4 -53 14 -58 22 -32
51 17 19 44 18 100 -3z m-2009 -91 c14 -14 -2 -48 -23 -48 -20 0 -30 40 -14
51 18 11 23 11 37 -3z m1652 -73 c12 -24 19 -49 15 -55 -10 -16 -52 -12 -59 6
-10 26 -7 69 6 82 16 16 13 18 38 -33z m228 -36 c17 -31 9 -104 -13 -129 -17
-19 -19 -19 -37 -4 -20 19 -23 55 -7 105 6 19 13 40 15 47 6 19 27 10 42 -19z
m-1561 -66 c5 -14 -24 -43 -42 -43 -16 0 -45 27 -45 41 0 27 79 28 87 2z m378
-63 c-5 -8 -11 -8 -17 -2 -6 6 -7 16 -3 22 5 8 11 8 17 2 6 -6 7 -16 3 -22z
m1491 19 c10 -17 -13 -36 -27 -22 -12 12 -4 33 11 33 5 0 12 -5 16 -11z
m-2366 -149 c0 -5 -7 -7 -15 -4 -8 4 -15 8 -15 10 0 2 7 4 15 4 8 0 15 -4 15
-10z m230 -136 c0 -17 -22 -14 -28 4 -2 7 3 12 12 12 9 0 16 -7 16 -16z m1624
-40 c16 -6 23 -44 8 -44 -14 0 -43 36 -35 43 8 8 8 8 27 1z m-1334 -95 c0 -11
-6 -19 -13 -19 -19 0 -36 20 -31 35 8 19 44 6 44 -16z m2075 -129 c3 -5 -3
-10 -14 -10 -12 0 -21 5 -21 10 0 6 6 10 14 10 8 0 18 -4 21 -10z"/>
<path d="M6280 6626 c-7 -9 -10 -23 -6 -31 11 -29 60 -10 54 21 -4 24 -31 29
-48 10z"/>
<path d="M6424 6539 c-12 -14 -14 -23 -7 -30 16 -16 53 -1 53 21 0 26 -25 32
-46 9z"/>
<path d="M6224 6435 c-8 -20 13 -45 37 -45 27 0 33 19 13 41 -21 23 -42 25
-50 4z"/>
<path d="M6415 6386 c-17 -13 -18 -18 -5 -72 18 -83 17 -232 -3 -349 -9 -55
-22 -128 -28 -163 -10 -60 -10 -63 16 -94 30 -35 28 -61 -7 -109 -17 -22 -25
-26 -39 -19 -20 11 -21 9 -85 -235 -53 -203 -52 -196 -16 -189 19 4 32 1 37
-7 10 -16 -23 -41 -46 -34 -23 7 -33 -9 -57 -90 -44 -152 -39 -174 38 -151 27
8 46 20 51 33 11 31 49 53 91 53 27 0 47 8 73 31 19 17 35 35 35 39 0 5 -19
10 -42 12 -36 3 -44 7 -46 26 -7 51 39 67 89 31 38 -26 53 -21 143 51 85 69
151 139 230 249 36 49 40 52 47 32 5 -11 13 -21 19 -21 13 0 13 13 -1 44 -10
22 -7 35 23 93 71 138 118 285 118 366 0 119 -286 386 -490 459 -69 25 -124
30 -145 14z m141 -311 c20 -31 15 -59 -12 -63 -14 -2 -27 6 -38 23 -17 25 -17
28 0 46 22 25 30 24 50 -6z m161 -77 c-3 -8 -6 -5 -6 6 -1 11 2 17 5 13 3 -3
4 -12 1 -19z m-99 -396 c3 -19 -1 -23 -15 -20 -10 2 -19 14 -21 26 -3 19 1 23
15 20 10 -2 19 -14 21 -26z"/>
<path d="M6183 6279 c-17 -17 -16 -54 1 -68 24 -20 123 45 102 67 -12 12 -92
13 -103 1z"/>
<path d="M6326 6142 c-3 -6 -1 -14 5 -17 15 -10 25 3 12 16 -7 7 -13 7 -17 1z"/>
<path d="M6125 6060 c-3 -5 1 -10 9 -10 9 0 16 5 16 10 0 6 -4 10 -9 10 -6 0
-13 -4 -16 -10z"/>
<path d="M7247 5826 c-6 -16 2 -28 14 -20 12 7 11 34 0 34 -5 0 -11 -6 -14
-14z"/>
<path d="M6327 5665 c-4 -8 -2 -17 2 -20 5 -2 11 4 14 15 6 23 -8 27 -16 5z"/>
<path d="M5975 5540 c3 -5 8 -10 11 -10 2 0 4 5 4 10 0 6 -5 10 -11 10 -5 0
-7 -4 -4 -10z"/>
<path d="M6110 5486 c0 -8 4 -17 9 -20 10 -7 23 19 14 28 -11 11 -23 6 -23 -8z"/>
<path d="M7085 5330 c-4 -6 -3 -16 3 -22 6 -6 12 -6 17 2 4 6 3 16 -3 22 -6 6
-12 6 -17 -2z"/>
<path d="M6706 4861 c-12 -19 6 -71 24 -71 18 0 33 42 23 67 -6 15 -39 18 -47
4z"/>
<path d="M5950 4810 c0 -5 4 -10 9 -10 6 0 13 5 16 10 3 6 -1 10 -9 10 -9 0
-16 -4 -16 -10z"/>
<path d="M6495 4740 c-3 -5 -4 -14 0 -20 8 -13 35 -1 35 16 0 16 -26 19 -35 4z"/>
<path d="M5878 4730 c-9 -6 -21 -25 -27 -43 -14 -46 -18 -179 -5 -184 19 -7
74 131 74 186 0 53 -8 60 -42 41z"/>
<path d="M6075 4571 c-7 -12 12 -24 25 -16 11 7 4 25 -10 25 -5 0 -11 -4 -15
-9z"/>
<path d="M5781 4152 c-8 -16 -7 -21 5 -26 18 -7 31 21 16 36 -7 7 -13 4 -21
-10z"/>
<path d="M5081 6396 c-10 -12 -10 -20 0 -37 11 -22 12 -22 25 -4 17 24 17 30
0 44 -10 9 -16 8 -25 -3z"/>
<path d="M4792 6198 c3 -7 13 -15 22 -16 12 -3 17 1 14 10 -3 7 -13 15 -22 16
-12 3 -17 -1 -14 -10z"/>
<path d="M4886 5931 c-17 -19 -17 -21 0 -50 22 -37 58 -41 75 -10 9 18 7 26
-17 50 -33 34 -36 35 -58 10z"/>
<path d="M4626 5849 c-11 -55 -7 -95 14 -142 25 -57 43 -53 65 14 l17 49 -30
53 c-35 62 -57 71 -66 26z"/>
<path d="M4866 5743 c-11 -11 -6 -23 9 -23 8 0 15 4 15 9 0 13 -16 22 -24 14z"/>
<path d="M4834 5632 c-23 -15 -150 -263 -209 -409 -20 -48 -47 -112 -61 -141
-13 -29 -24 -55 -24 -57 0 -3 -22 -52 -50 -110 -27 -58 -51 -113 -52 -123 -3
-14 9 -18 69 -23 78 -7 93 -13 93 -35 0 -16 36 -19 45 -4 3 6 -4 14 -16 18
-15 6 -19 11 -10 16 6 4 18 2 27 -4 16 -14 110 -6 131 12 7 6 13 30 13 54 0
32 5 47 19 55 16 10 16 15 6 38 -9 19 -11 58 -5 146 14 216 31 439 39 503 8
63 4 77 -15 64z m-54 -277 c0 -18 -5 -25 -20 -25 -22 0 -26 20 -8 38 19 19 28
14 28 -13z m-23 -174 c9 -15 10 -28 2 -50 -12 -35 -33 -40 -49 -12 -14 27 -13
47 6 65 20 21 27 20 41 -3z"/>
<path d="M4982 5408 c2 -12 11 -24 21 -26 24 -5 22 25 -4 38 -18 10 -20 9 -17
-12z"/>
<path d="M5156 5337 c-18 -13 -18 -14 -1 -21 22 -8 28 -3 23 19 -3 14 -5 14
-22 2z"/>
<path d="M4507 5286 c-6 -15 28 -76 42 -76 5 0 14 7 21 15 10 12 10 18 -1 32
-36 46 -53 54 -62 29z"/>
<path d="M4912 5277 c-18 -21 19 -51 52 -43 21 5 24 10 17 29 -10 26 -52 35
-69 14z"/>
<path d="M4864 5075 c-3 -8 -3 -19 1 -25 9 -14 45 6 45 25 0 19 -39 19 -46 0z"/>
<path d="M4271 4996 c-9 -11 -10 -20 -1 -36 12 -23 28 -23 43 2 22 34 -17 65
-42 34z"/>
<path d="M5048 4963 c-9 -10 -27 -36 -40 -58 -24 -38 -25 -43 -11 -77 8 -20
21 -39 30 -42 17 -7 44 22 68 71 15 31 15 36 -4 78 -11 25 -22 45 -24 45 -2 0
-11 -8 -19 -17z"/>
<path d="M4250 4801 c0 -12 5 -21 10 -21 6 0 10 6 10 14 0 8 -4 18 -10 21 -5
3 -10 -3 -10 -14z"/>
<path d="M4790 4695 c0 -8 9 -15 20 -15 11 0 20 7 20 15 0 8 -9 15 -20 15 -11
0 -20 -7 -20 -15z"/>
<path d="M4570 4580 c0 -13 5 -20 13 -17 6 2 12 10 12 17 0 7 -6 15 -12 18 -8
2 -13 -5 -13 -18z"/>
<path d="M4912 4515 c-23 -47 -42 -92 -42 -101 0 -22 33 -54 47 -46 7 4 28 43
48 87 40 88 44 138 10 143 -16 2 -28 -14 -63 -83z"/>
<path d="M5092 4548 c-16 -16 3 -48 28 -48 23 0 27 29 8 48 -15 15 -21 15 -36
0z"/>
<path d="M4150 4415 c0 -8 7 -15 15 -15 8 0 15 4 15 9 0 5 -7 11 -15 15 -9 3
-15 0 -15 -9z"/>
<path d="M3920 4330 c0 -19 11 -26 23 -14 8 8 -3 34 -14 34 -5 0 -9 -9 -9 -20z"/>
<path d="M5060 4326 c0 -10 9 -16 25 -16 14 0 25 5 25 10 0 6 -4 10 -9 10 -5
0 -16 3 -25 6 -11 4 -16 1 -16 -10z"/>
<path d="M4847 4254 c-10 -10 -8 -66 2 -83 12 -19 33 -9 51 23 10 20 11 32 4
44 -12 18 -45 27 -57 16z"/>
<path d="M3896 4151 c-4 -7 -5 -15 -2 -18 9 -9 19 4 14 18 -4 11 -6 11 -12 0z"/>
<path d="M5005 4139 c-4 -6 -3 -15 3 -21 6 -6 11 -4 15 6 7 18 -9 31 -18 15z"/>
<path d="M4002 4074 c4 -21 22 -23 26 -1 2 10 -3 17 -13 17 -10 0 -15 -6 -13
-16z"/>
<path d="M3790 3935 c0 -8 5 -15 10 -15 6 0 10 7 10 15 0 8 -4 15 -10 15 -5 0
-10 -7 -10 -15z"/>
<path d="M4970 3930 c0 -11 7 -20 15 -20 8 0 15 9 15 20 0 11 -7 20 -15 20 -8
0 -15 -9 -15 -20z"/>
<path d="M3726 3774 c-8 -21 11 -54 32 -54 21 1 52 23 52 38 0 29 -74 43 -84
16z"/>
</g>
</svg>
